<svg xmlns="http://www.w3.org/2000/svg" width="49.637" height="50.8" viewBox="0 0 49.637 50.8">
  <g id="chrome" transform="translate(0 -0.019)">
    <path id="Path_12418" data-name="Path 12418" d="M61.818,8.912C73.285-4.9,94.549-2.173,102.495,13.96c-5.6,0-14.356,0-19.1,0-3.441,0-5.664-.08-8.069,1.232a11.729,11.729,0,0,0-5.707,7.754Z" transform="translate(-55.654 0)" fill="#f44336"/>
    <path id="Path_12419" data-name="Path 12419" d="M170.842,179.388a8.484,8.484,0,1,0,8.484-8.488A8.5,8.5,0,0,0,170.842,179.388Z" transform="translate(-154.514 -153.966)" fill="#2196f3"/>
    <path id="Path_12420" data-name="Path 12420" d="M28.81,141.292a11.433,11.433,0,0,1-13.386-5.424c-2.329-4.02-8.488-14.745-11.283-19.624A25.559,25.559,0,0,0,20.577,155.23Z" transform="translate(0 -104.885)" fill="#4caf50"/>
    <path id="Path_12421" data-name="Path 12421" d="M249.432,170.839a11.621,11.621,0,0,1,2.144,14.292c-2.023,3.491-8.484,14.394-11.615,19.671a25.545,25.545,0,0,0,25.658-33.966Z" transform="translate(-217.451 -154.033)" fill="#ffc107"/>
  </g>
</svg>
