<svg id="dribbble" xmlns="http://www.w3.org/2000/svg" width="50.002" height="50.002" viewBox="0 0 50.002 50.002">
  <circle id="Ellipse_3004" data-name="Ellipse 3004" cx="23.438" cy="23.438" r="23.438" transform="translate(1.563 1.394)" fill="#ec407a"/>
  <path id="Path_12422" data-name="Path 12422" d="M25,0A25,25,0,1,0,50,25,25.03,25.03,0,0,0,25,0ZM46.867,25.188a34.756,34.756,0,0,0-15.894-.494q-1.059-2.644-2.288-5.21a47.16,47.16,0,0,0,12.8-8.819A21.752,21.752,0,0,1,46.877,25C46.877,25.063,46.867,25.123,46.867,25.188ZM39.273,8.46a43.973,43.973,0,0,1-11.944,8.247A87.837,87.837,0,0,0,19.173,3.938a21.638,21.638,0,0,1,20.1,4.522ZM16.085,5.044a84.627,84.627,0,0,1,8.328,12.841A44,44,0,0,1,3.591,20.52,21.941,21.941,0,0,1,16.085,5.044ZM3.125,25c0-.469.041-.928.072-1.388a47.262,47.262,0,0,0,5.544.363,47.055,47.055,0,0,0,17.076-3.259q1.125,2.344,2.109,4.753A35.029,35.029,0,0,0,8.794,39.642,21.77,21.77,0,0,1,3.125,25Zm7.953,16.86A31.893,31.893,0,0,1,29.051,28.376a84.5,84.5,0,0,1,4.225,16.863,21.794,21.794,0,0,1-22.2-3.378Zm25.129,1.891a87.8,87.8,0,0,0-4.088-16.1,31.665,31.665,0,0,1,14.476.681A21.889,21.889,0,0,1,36.208,43.752Z" fill="#c2185b"/>
</svg>
