<svg xmlns="http://www.w3.org/2000/svg" width="51.629" height="50.115" viewBox="0 0 51.629 50.115">
  <g id="firefox" transform="translate(0 -4.277)">
    <g id="Group_10642" data-name="Group 10642" transform="translate(0 4.277)">
      <path id="Path_12441" data-name="Path 12441" d="M33.275,4.277A24.171,24.171,0,1,1,9.1,28.448,24.139,24.139,0,0,1,33.275,4.277Z" transform="translate(-7.493 -4.277)" fill="#2394bc"/>
      <path id="Path_12442" data-name="Path 12442" d="M29.972,69.628a25.818,25.818,0,0,0,21.593-25.46l-.161.322a16.934,16.934,0,0,0-.161-6.446c-.161,1.45-.322,2.256-.645,2.578a15.28,15.28,0,0,0-.483-3.545,17.656,17.656,0,0,0-.967-4.19,6.047,6.047,0,0,1,.161,1.611c-1.934-5-6.446-11.28-17.887-11.119,0,0,4.028.483,5.8,3.223a5.3,5.3,0,0,0-3.384.322,25.254,25.254,0,0,1,4.673,2.256h.161c.322.161.644.483.967.644,2.417,1.773,4.673,4.19,4.512,7.251A3.439,3.439,0,0,0,41.9,35.3c1.128,4.351,1.128,7.9.322,10.635a9.154,9.154,0,0,0-1.611-3.384c.644,5.8-.161,9.991-2.739,12.73a14.752,14.752,0,0,0,.644-4.19c-3.062,4.512-6.446,6.929-10.313,7.09a13.572,13.572,0,0,1-4.351-.644,13.566,13.566,0,0,1-5.318-3.384A11.909,11.909,0,0,0,25.3,52.869l3.223-2.095h0a1.78,1.78,0,0,1,1.289,0c.806-.161,1.128-.483.806-1.289a5.685,5.685,0,0,0-1.773-1.45,5.029,5.029,0,0,0-5.157.483,4.36,4.36,0,0,1-5-.161,12.68,12.68,0,0,1-3.062-2.9l-.322-.644a13.531,13.531,0,0,0,.644,5.318h0a13.238,13.238,0,0,1-.644-5.318h0c0-1.128.483-1.934,1.45-1.934h.161a19.389,19.389,0,0,1,3.706.806,5.971,5.971,0,0,0-.967-4.19h0a13.393,13.393,0,0,1,3.384-2.578c.483-.161.644-.644.806-1.128h0a.944.944,0,0,0-.161-1.289,15.639,15.639,0,0,1-2.739-.161h0a10.913,10.913,0,0,1-1.45-.967l-1.45-1.45-.483-.322h0l-.161-.161.161-.161a7.7,7.7,0,0,1,.967-2.9l.161-.161a10.721,10.721,0,0,1,2.739-2.578A12.243,12.243,0,0,0,14.5,29.02a8.91,8.91,0,0,0-5.962.644l-.322.161h0l.322-.161h0q-2.175-.967-2.9-5.8C3.706,25.636,2.9,29.02,2.9,33.693l-.483.806-.161.161h0c-.322.483-.644,1.128-1.128,1.934a7.206,7.206,0,0,0-.967,3.223h0v.322h0v.644l1.45-1.128A21.65,21.65,0,0,0,.483,44.006v.644L0,44.167A26.119,26.119,0,0,0,4.673,58.992l.161.161L5,59.315a26.857,26.857,0,0,0,8.057,7.251,28.447,28.447,0,0,0,7.251,2.9l.483.161c.483.161,1.128.161,1.611.322.483,0,.806.161,1.289.161h3.867c.644,0,1.289-.161,1.934-.161C29.489,69.628,29.972,69.628,29.972,69.628ZM46.248,38.205v0Z" transform="translate(0 -19.996)" fill="#ec8840"/>
    </g>
  </g>
</svg>
