<svg xmlns="http://www.w3.org/2000/svg" width="50.398" height="50.102" viewBox="0 0 50.398 50.102">
  <g id="stats" transform="translate(0 -1.5)">
    <path id="Path_12250" data-name="Path 12250" d="M64.662,318.5H56.787a.788.788,0,0,0-.787.787v17.324a.788.788,0,0,0,.787.788h7.875a.788.788,0,0,0,.787-.788V319.287A.788.788,0,0,0,64.662,318.5Z" transform="translate(-50.488 -285.797)" fill="#fec7b0"/>
    <g id="Group_9763" data-name="Group 9763" transform="translate(5.512 28.766)">
      <path id="Path_12251" data-name="Path 12251" d="M58.362,336.612V319.287a.788.788,0,0,1,.787-.787H56.787a.788.788,0,0,0-.787.787v17.324a.788.788,0,0,0,.787.788H59.15A.788.788,0,0,1,58.362,336.612Z" transform="translate(-56 -314.563)" fill="#feaa88"/>
      <path id="Path_12252" data-name="Path 12252" d="M216.662,278.5h-7.875a.787.787,0,0,0-.787.787v21.262a.787.787,0,0,0,.787.787h7.875a.787.787,0,0,0,.787-.787V279.288A.787.787,0,0,0,216.662,278.5Z" transform="translate(-193.038 -278.5)" fill="#feaa88"/>
    </g>
    <g id="Group_9764" data-name="Group 9764" transform="translate(20.474 20.104)">
      <path id="Path_12253" data-name="Path 12253" d="M210.362,300.549V279.288a.787.787,0,0,1,.787-.787h-2.362a.787.787,0,0,0-.787.787v21.262a.787.787,0,0,0,.787.787h2.362A.787.787,0,0,1,210.362,300.549Z" transform="translate(-208 -269.838)" fill="#fd8e61"/>
      <path id="Path_12254" data-name="Path 12254" d="M368.662,190.5h-7.875a.788.788,0,0,0-.787.787v29.924a.787.787,0,0,0,.787.787h7.875a.787.787,0,0,0,.787-.787V191.287A.787.787,0,0,0,368.662,190.5Z" transform="translate(-345.038 -190.5)" fill="#fd8e61"/>
    </g>
    <path id="Path_12255" data-name="Path 12255" d="M362.362,221.211V191.287a.788.788,0,0,1,.787-.787h-2.362a.788.788,0,0,0-.787.787v29.924a.787.787,0,0,0,.787.787h2.362A.787.787,0,0,1,362.362,221.211Z" transform="translate(-324.564 -170.396)" fill="#fd7239"/>
    <path id="Path_12256" data-name="Path 12256" d="M49.61,496.075H.787a.787.787,0,1,1,0-1.575H49.61a.787.787,0,0,1,0,1.575Z" transform="translate(0 -444.473)" fill="#aab4bd"/>
    <path id="Path_12257" data-name="Path 12257" d="M61.928,1.894a1.575,1.575,0,0,0-1.238-.382l-6.3.787a1.575,1.575,0,0,0,.391,3.126l2.369-.3A56.293,56.293,0,0,1,32.217,22.715a53.794,53.794,0,0,1-14.69,3.2,1.575,1.575,0,0,0,.048,3.149h.049a55.76,55.76,0,0,0,15.541-3.339,61.152,61.152,0,0,0,14.208-7.237A57.626,57.626,0,0,0,59.311,7.465v1.91a1.575,1.575,0,0,0,3.15,0v-6.3A1.575,1.575,0,0,0,61.928,1.894Z" transform="translate(-14.426)" fill="#fa8b0c"/>
  </g>
</svg>
