<svg xmlns="http://www.w3.org/2000/svg" width="62.075" height="50.169" viewBox="0 0 62.075 50.169">
  <g id="tags" transform="translate(0 -51.392)">
    <g id="Group_10627" data-name="Group 10627" transform="translate(0 83.037)">
      <path id="Path_12432" data-name="Path 12432" d="M42.3,328.066l-33.051-.011A9.271,9.271,0,0,1,0,318.786a9.254,9.254,0,0,1,9.271-9.244l10.885.009a1.855,1.855,0,0,1,1.1.364L39.347,323.3a5.383,5.383,0,0,0,2.988,1.06,1.852,1.852,0,0,1-.039,3.7Z" transform="translate(0 -309.542)" fill="#f03800"/>
    </g>
    <g id="Group_10628" data-name="Group 10628" transform="translate(7.411 90.44)">
      <circle id="Ellipse_3006" data-name="Ellipse 3006" cx="1.852" cy="1.852" r="1.852" fill="#e3e7ea"/>
    </g>
    <g id="Group_10629" data-name="Group 10629" transform="translate(6.567 63.202)">
      <path id="Path_12433" data-name="Path 12433" d="M86.133,184.941a1.845,1.845,0,0,0-.349-2.561,5.994,5.994,0,0,1-1.915-2.8l-5.215-17.1-1.323-4.36a1.822,1.822,0,0,0-.685-.95l-8.688-6.423a9.28,9.28,0,0,0-12.971,1.884,8.168,8.168,0,0,0-.738,1.193,9.316,9.316,0,0,0,2.322,11.515,2.089,2.089,0,0,0,.369.288l26.583,19.689a1.89,1.89,0,0,0,2.608-.372Z" transform="translate(-53.182 -148.909)" fill="#fdbf00"/>
    </g>
    <g id="Group_10633" data-name="Group 10633" transform="translate(23.032 51.392)">
      <g id="Group_10631" data-name="Group 10631" transform="translate(0 0)">
        <g id="Group_10630" data-name="Group 10630">
          <path id="Path_12434" data-name="Path 12434" d="M203.507,95.946a1.853,1.853,0,0,1-2.28-1.234l-9.62-31.422a9.02,9.02,0,0,1,.667-7.011,9.258,9.258,0,0,1,17.013,1.641l3.2,10.319a1.833,1.833,0,0,1-.024,1.16l-7.517,21.082a5.412,5.412,0,0,0-.157,3.219A1.84,1.84,0,0,1,203.507,95.946Z" transform="translate(-191.188 -51.392)" fill="#00a66c"/>
        </g>
      </g>
      <g id="Group_10632" data-name="Group 10632" transform="translate(7.412 7.367)">
        <circle id="Ellipse_3007" data-name="Ellipse 3007" cx="1.852" cy="1.852" r="1.852" fill="#fff5f5"/>
      </g>
    </g>
    <g id="Group_10637" data-name="Group 10637" transform="translate(32.312 51.625)">
      <g id="Group_10636" data-name="Group 10636" transform="translate(0 0)">
        <g id="Group_10635" data-name="Group 10635">
          <g id="Group_10634" data-name="Group 10634">
            <path id="Path_12435" data-name="Path 12435" d="M279.655,103.207l-.814.011a8.791,8.791,0,0,1-2.751-.521,9.22,9.22,0,0,1-2.621-1.456,9.479,9.479,0,0,1-3.135-4.5c-.012-.037-.111-.377-.121-.415a9.05,9.05,0,0,1,.244-5.4l11.228-31.508a9.256,9.256,0,0,1,17.456,6.164L287.914,97.091A9.368,9.368,0,0,1,279.655,103.207Z" transform="translate(-269.913 -53.282)" fill="#4086f4"/>
          </g>
        </g>
      </g>
    </g>
    <path id="Path_12436" data-name="Path 12436" d="M323.5,106.993a9.368,9.368,0,0,0,8.26-6.116l11.229-31.507A9.217,9.217,0,0,0,337.36,57.6l-17.421,48.882a8.79,8.79,0,0,0,2.751.52Z" transform="translate(-281.45 -5.443)" fill="#4175df"/>
    <g id="Group_10638" data-name="Group 10638" transform="translate(40.052 90.458)">
      <circle id="Ellipse_3008" data-name="Ellipse 3008" cx="1.852" cy="1.852" r="1.852" fill="#e3e7ea"/>
    </g>
    <path id="Path_12437" data-name="Path 12437" d="M342.363,372.865a1.852,1.852,0,0,0-1.126-2.365L340,373.991A1.852,1.852,0,0,0,342.363,372.865Z" transform="translate(-298.719 -279.936)" fill="#e3e7ea"/>
    <g id="Group_10639" data-name="Group 10639" transform="translate(50.962 58.997)">
      <circle id="Ellipse_3009" data-name="Ellipse 3009" cx="1.852" cy="1.852" r="1.852" transform="translate(0 0)" fill="#fff5f5"/>
    </g>
    <g id="Group_10640" data-name="Group 10640" transform="translate(13.713 70.754)">
      <path id="Path_12438" data-name="Path 12438" d="M116.339,211.9a1.731,1.731,0,0,0,.108-1.966,1.359,1.359,0,0,0-.492-.607,1.749,1.749,0,0,0-1.777-.2,1.788,1.788,0,0,0-.8.582,1.817,1.817,0,0,0,.372,2.608A1.842,1.842,0,0,0,116.339,211.9Z" transform="translate(-112.988 -208.973)" fill="#fff5f5"/>
    </g>
    <g id="Group_10641" data-name="Group 10641" transform="translate(12.934 59.09)">
      <path id="Path_12439" data-name="Path 12439" d="M116.339,213.023a1.731,1.731,0,0,0,.108-1.966l-2.269-.8a1.788,1.788,0,0,0-.8.582,1.817,1.817,0,0,0,.372,2.608A1.842,1.842,0,0,0,116.339,213.023Z" transform="translate(-112.988 -198.385)" fill="#e3e7ea"/>
      <path id="Path_12440" data-name="Path 12440" d="M433.3,116.515a1.852,1.852,0,0,0-1.126-2.365l-1.238,3.491A1.852,1.852,0,0,0,433.3,116.515Z" transform="translate(-391.672 -114.15)" fill="#e3e7ea"/>
    </g>
  </g>
</svg>
