<svg xmlns="http://www.w3.org/2000/svg" xmlns:xlink="http://www.w3.org/1999/xlink" width="512" height="512" viewBox="0 0 512 512">
  <defs>
    <clipPath id="clip-Fav">
      <rect width="512" height="512"/>
    </clipPath>
  </defs>
  <g id="Fav" clip-path="url(#clip-Fav)">
    <path id="Subtraction_14" data-name="Subtraction 14" d="M236.67,516.909a80.619,80.619,0,0,1-40.253-10.783L47.424,420.1A80.656,80.656,0,0,1,7.165,349.872L8.281,173.866a80.862,80.862,0,0,1,39.81-68.953L125.945,59.3l1.142,178.43c.487,28.855.091,58.327-.293,86.828-.255,18.965-.519,38.574-.519,57.788,0,12.242,7.89,18.985,22.216,18.985,15.15,0,23.84-6.772,23.84-18.579l-.812-94.532,2.48-.015c21.3,0,42.793-.2,63.577-.392,21.63-.2,42.061-.39,62.4-.39l.406,60.186V492.384L277.37,505.866A80.6,80.6,0,0,1,236.67,516.909Zm109.31-51.235v-.028L344.816,264.4c.406-52.911.406-73.675.406-119.169,0-14.269-7.682-21.811-22.216-21.811-15.12,0-22.653,7.267-23.028,22.217,0,11.122.086,26.3.177,42.369.107,18.846.228,40.207.228,58.612l-20.608.406c-10.98,0-23.221.1-35.058.2-11.727.1-23.785.2-34.417.2-15.715,0-25.234-.182-31.533-.3-3.127-.06-5.386-.1-7.248-.1-.2-32.115-.2-93.531-.2-147.717,0-24.012,0-47.1-.017-66.574l28.653-16.786a80.524,80.524,0,0,1,80.953-.246L429.9,101.724a80.633,80.633,0,0,1,40.245,70.229l-1.1,175.993a80.925,80.925,0,0,1-39.824,68.968L346,465.66Z" transform="translate(17.837 -4.909)" fill="#8231d3"/>
  </g>
</svg>
